<svg id="Слой_1" data-name="Слой 1" xmlns="http://www.w3.org/2000/svg" viewBox="0 0 242.13 54.19"><title>Безымянный-1</title><polygon points="16.33 18.05 0 18.05 0 54.19 16.33 54.19 48.59 36.12 48.59 0 16.33 18.05" style="fill:#e6ff28"/><polygon points="80.85 18.05 80.85 54.19 48.59 36.12 48.59 0 80.85 18.05" style="fill:#e1e1e1"/><polygon points="80.85 18.05 80.85 54.19 113.11 36.12 113.11 0 80.85 18.05" style="fill:#e6ff28"/><polygon points="145.37 18.05 145.37 54.19 113.11 36.12 113.11 0 145.37 18.05" style="fill:#e1e1e1"/><polygon points="145.37 18.05 145.37 54.19 177.62 36.12 177.62 0 145.37 18.05" style="fill:#e6ff28"/><polygon points="209.88 18.05 209.88 54.19 177.62 36.12 177.62 0 209.88 18.05" style="fill:#e1e1e1"/><polygon points="209.88 18.05 209.88 54.19 242.13 36.12 242.13 0 209.88 18.05" style="fill:#e6ff28"/><path d="M32.41,25.15,30.57,36.54,26,39.11l-4.08-16,4.83-2.73,1.84,10.13,2.16-12.39L34,16.32l2.16,10L38,14.07l4.86-2.74L38.78,31.9l-4.53,2.56Z" transform="translate(0.42 0.59)" style="fill:#071a3e"/><path d="M90.25,20.87,98.92,16c3-1.67,4.23.13,4.23,2.26a7.48,7.48,0,0,1-2.44,5.57c1.54-.57,2.72.57,2.72,2.93a8.63,8.63,0,0,1-4.22,7.34l-9,5.06ZM98,30.25a2.14,2.14,0,0,0,1-1.8c0-.66-.38-1-1-.69l-3.47,2v2.49Zm-.13-6.91a2.09,2.09,0,0,0,.86-1.66c0-.63-.41-.89-.86-.64l-3.34,1.89v2.3Z" transform="translate(0.42 0.59)" style="fill:#071a3e"/><path d="M159.11,23.46l-3.83,2.16V20.8l12-6.76v4.82L163.43,21V34.46l-4.32,2.44Z" transform="translate(0.42 0.59)" style="fill:#071a3e"/><path d="M225.84,29.78l-1.56.88v5.86L220,39V20.7l7.62-4.3c3.34-1.89,5.13-.05,5.13,3.37a11.1,11.1,0,0,1-2.57,7l2.59,5-4.92,2.78Zm1.07-8.41-2.63,1.49v3.2l2.63-1.49a3,3,0,0,0,1.41-2.41C228.32,21.18,227.64,21,226.91,21.37Z" transform="translate(0.42 0.59)" style="fill:#071a3e"/><path d="M58,13.84,68.86,20v4.6l-6.5-3.68V23l6.35,3.59v4.6l-6.35-3.59v2.33l6.5,3.68v4.6L58,32.1Z" transform="translate(0.42 0.59)" style="fill:#071a3e"/><path d="M124.35,26.44a13,13,0,0,0,4.6,5c.81.46,1.58.54,1.58-.17s-.6-1.41-2-2.53c-2.35-1.88-5.94-4.62-5.94-9.2,0-3.09,2-4.78,5.92-2.56a17.2,17.2,0,0,1,6.05,6l-2.31,2.61a13.23,13.23,0,0,0-4-4.06c-1.07-.6-1.3-.24-1.3.22,0,.71.58,1.29,2.1,2.47,2.35,1.85,5.84,4.7,5.84,8.92,0,4-2.33,5-6.16,2.87a17.52,17.52,0,0,1-6.63-6.65Z" transform="translate(0.42 0.59)" style="fill:#071a3e"/><path d="M187,13.89,197.8,20v4.6l-6.5-3.68v2.14l6.35,3.59v4.6l-6.35-3.59V30l6.5,3.68v4.6L187,32.16Z" transform="translate(0.42 0.59)" style="fill:#071a3e"/></svg>